<svg width="18" height="34" viewBox="0 0 18 34" fill="none" xmlns="http://www.w3.org/2000/svg">
<path d="M9.44437 33.2896L16.9102 25.8239C17.2233 25.5557 17.2598 25.0844 16.9916 24.7712C16.7234 24.4581 16.2521 24.4216 15.9389 24.6898C15.9097 24.7148 15.8825 24.742 15.8575 24.7712L9.6609 30.9603V1.40329C9.6609 0.991007 9.32663 0.656738 8.91428 0.656738C8.50193 0.656738 8.16773 0.991007 8.16773 1.40329V30.9603L1.97863 24.7712C1.71044 24.4581 1.23913 24.4216 0.925971 24.6898C0.612811 24.9581 0.576306 25.4293 0.844554 25.7425C0.869576 25.7717 0.896779 25.7989 0.925971 25.8239L8.39177 33.2897C8.68286 33.5791 9.15315 33.5791 9.44437 33.2896Z" fill="white"/>
</svg>
