<svg width="47" height="47" viewBox="0 0 47 47" fill="none" xmlns="http://www.w3.org/2000/svg">
<path d="M23.5 47C10.5416 47 0 36.4584 0 23.5C0 10.5416 10.5416 0 23.5 0C36.4584 0 47 10.5416 47 23.5C47 36.4584 36.4584 47 23.5 47ZM23.5 2.9375C12.1613 2.9375 2.9375 12.1613 2.9375 23.5C2.9375 34.8387 12.1613 44.0625 23.5 44.0625C34.8387 44.0625 44.0625 34.8387 44.0625 23.5C44.0625 12.1613 34.8387 2.9375 23.5 2.9375Z" fill="#272727"/>
<path d="M29.4632 24.3518H17.5369C17.0667 24.3518 16.6851 23.9702 16.6851 23.4999C16.6851 23.0297 17.0667 22.6481 17.5369 22.6481H29.4632C29.9334 22.6481 30.3151 23.0297 30.3151 23.4999C30.3151 23.9702 29.9334 24.3518 29.4632 24.3518Z" fill="#272727"/>
<path d="M23.5001 30.3151C23.0298 30.3151 22.6482 29.9334 22.6482 29.4632V17.5369C22.6482 17.0667 23.0298 16.6851 23.5001 16.6851C23.9703 16.6851 24.3519 17.0667 24.3519 17.5369V29.4632C24.3519 29.9334 23.9703 30.3151 23.5001 30.3151Z" fill="#272727"/>
</svg>
