<svg width="64" height="65" viewBox="0 0 64 65" fill="none" xmlns="http://www.w3.org/2000/svg">
<g clip-path="url(#clip0_207_1358)">
<path d="M8.01297 0.5C5.81325 0.5 4.0066 2.30665 4.0066 4.50638V21.1895C2.60814 21.6658 1.58765 22.5729 0.971576 23.5934C0.32601 24.6846 -0.00981764 25.9312 0.00021853 27.1991V35.7221C0.00021853 37.4985 0.805274 39.6756 1.56119 41.7922C1.93915 42.8504 2.30956 43.8785 2.58169 44.7327C2.85004 45.5907 3.00122 46.3201 3.00122 46.5658V50.353C2.68811 50.6333 2.43747 50.9764 2.26557 51.3599C2.09367 51.7435 2.00435 52.1589 2.00341 52.5791V61.5897C2.00637 62.3858 2.32314 63.1485 2.88497 63.7125C3.44681 64.2764 4.20838 64.5961 5.00441 64.6021H19.0343C19.8297 64.5951 20.5903 64.275 21.1513 63.7112C21.7123 63.1473 22.0286 62.3851 22.0315 61.5897V52.5829C22.029 52.0166 21.8671 51.4624 21.5643 50.9838C21.2615 50.5052 20.83 50.1216 20.3194 49.8767C20.4894 49.1888 20.8372 48.2515 21.2265 47.1554C21.6876 45.8628 22.1714 44.3283 22.315 42.5745H40.9522L45.6389 51.9517C45.1663 52.2107 44.7718 52.5917 44.4966 53.0551C44.2213 53.5185 44.0755 54.0472 44.0742 54.5861V61.5935C44.0771 62.3889 44.3934 63.1511 44.9544 63.7149C45.5154 64.2788 46.276 64.5989 47.0714 64.6058H61.0937C62.7378 64.6058 64.1023 63.2452 64.1023 61.5935V54.5861C64.0981 53.9909 63.9184 53.4101 63.5855 52.9166C63.2527 52.4231 62.7817 52.0388 62.2314 51.8119C62.3901 51.2638 62.6774 50.6175 63.0137 49.8616C63.5278 48.7088 64.1023 47.299 64.1023 45.5718V4.51016C64.1023 2.30665 62.2956 0.5 60.0959 0.5H8.01297ZM8.01297 2.50319H60.0959C61.2222 2.50319 62.0991 3.38006 62.0991 4.50638V33.7227C61.7764 33.6028 61.4342 33.5438 61.0899 33.5488C60.5683 33.5602 60.4247 33.6244 60.0921 33.7303V7.50738C60.0881 6.71369 59.7711 5.95364 59.2099 5.39242C58.6486 4.83119 57.8886 4.51413 57.0949 4.51016H11.014C10.2203 4.51413 9.46024 4.83119 8.89901 5.39242C8.33778 5.95364 8.02073 6.71369 8.01676 7.50738V24.9049L7.82778 24.8293C7.25678 24.583 6.62679 24.5069 6.01357 24.6101V4.51016C6.01357 3.38006 6.88665 2.50319 8.01676 2.50319H8.01297ZM10.0162 26.7304V7.5036C10.0162 6.93666 10.4433 6.50957 11.014 6.50957H57.0949C57.6618 6.50957 58.0889 6.93288 58.0889 7.5036V32.7287C57.7722 32.6052 57.4348 32.5436 57.0949 32.5472C56.2672 32.5472 55.7909 32.8383 55.6095 32.9328C55.3408 32.5062 54.9682 32.1548 54.5266 31.9115C54.085 31.6683 53.5889 31.5411 53.0847 31.5419C52.5442 31.5721 52.4535 31.6061 52.0794 31.7157V27.5468H55.0728C55.3384 27.5468 55.5932 27.4413 55.781 27.2535C55.9689 27.0656 56.0744 26.8109 56.0744 26.5452C56.0744 26.2796 55.9689 26.0248 55.781 25.837C55.5932 25.6492 55.3384 25.5436 55.0728 25.5436H52.0794C52.0794 23.8957 50.7263 22.5313 49.0784 22.5313C47.4304 22.5313 46.066 23.892 46.066 25.5436H37.0554C36.7898 25.5436 36.535 25.6492 36.3472 25.837C36.1594 26.0248 36.0538 26.2796 36.0538 26.5452C36.0538 26.8109 36.1594 27.0656 36.3472 27.2535C36.535 27.4413 36.7898 27.5468 37.0554 27.5468H46.066V36.822L44.8868 34.7772C44.4205 33.9746 43.6556 33.3891 42.7592 33.1483C41.8627 32.9076 40.9074 33.0312 40.1018 33.4921C39.5691 33.8044 39.1294 34.2531 38.8278 34.7919C38.5262 35.3306 38.3736 35.9401 38.3859 36.5574H12.5712C12.1101 36.0509 11.6905 35.639 11.4184 35.3101C11.1047 34.9284 11.014 34.7243 11.014 34.5542V30.2455C11.0042 29.0058 10.657 27.7916 10.0162 26.7304ZM49.0784 8.51276C48.2823 8.51572 47.5195 8.83249 46.9556 9.39432C46.3916 9.95616 46.072 10.7177 46.066 11.5138H37.0554C36.7893 11.5138 36.5341 11.6195 36.3459 11.8077C36.1577 11.9959 36.052 12.2511 36.052 12.5172C36.052 12.7834 36.1577 13.0386 36.3459 13.2268C36.5341 13.415 36.7893 13.5207 37.0554 13.5207H46.066C46.072 14.3168 46.3916 15.0783 46.9556 15.6402C47.5195 16.202 48.2823 16.5188 49.0784 16.5217C49.8733 16.5187 50.6349 16.2016 51.1971 15.6395C51.7592 15.0773 52.0764 14.3157 52.0794 13.5207H55.0879C55.3536 13.5207 55.6083 13.4152 55.7962 13.2274C55.984 13.0395 56.0895 12.7848 56.0895 12.5191C56.0895 12.2535 55.984 11.9987 55.7962 11.8109C55.6083 11.6231 55.3536 11.5175 55.0879 11.5175H52.0794C52.0764 10.7225 51.7592 9.96096 51.1971 9.39881C50.6349 8.83666 49.8733 8.51952 49.0784 8.51654V8.51276ZM49.0784 10.5159C49.6491 10.5159 50.0762 10.943 50.0762 11.5138V13.5207C50.0762 14.0914 49.6491 14.5261 49.0784 14.5261C48.5076 14.5261 48.0692 14.0914 48.0692 13.5207V11.5175C48.0671 11.385 48.0919 11.2533 48.142 11.1306C48.1921 11.0078 48.2666 10.8965 48.3608 10.8033C48.4551 10.7101 48.5673 10.6369 48.6906 10.5881C48.8139 10.5394 48.9458 10.5124 49.0784 10.5159ZM23.0369 11.5138C20.1167 11.5198 17.3181 12.6832 15.2543 14.7491C13.1905 16.8151 12.0299 19.6149 12.0269 22.5351V26.5415C12.0269 27.0971 12.4691 27.5468 13.0247 27.5506H33.0491C33.1819 27.5516 33.3135 27.5262 33.4364 27.4758C33.5593 27.4255 33.671 27.3512 33.7649 27.2573C33.8588 27.1634 33.9331 27.0517 33.9834 26.9288C34.0338 26.8059 34.0592 26.6743 34.0582 26.5415V22.5351C34.0542 19.6149 32.8927 16.8155 30.8282 14.7503C28.7637 12.685 25.9646 11.5225 23.0445 11.5175L23.0369 11.5138ZM22.0315 13.5736V14.5261C22.0315 14.7917 22.137 15.0465 22.3249 15.2343C22.5127 15.4222 22.7675 15.5277 23.0331 15.5277C23.2988 15.5277 23.5535 15.4222 23.7413 15.2343C23.9292 15.0465 24.0347 14.7917 24.0347 14.5261V13.5736C25.7809 13.7664 27.3721 14.4505 28.6685 15.4861L27.992 16.1589C27.8982 16.252 27.8239 16.3627 27.7731 16.4846C27.7224 16.6066 27.6963 16.7374 27.6963 16.8695C27.6963 17.0015 27.7224 17.1323 27.7731 17.2543C27.8239 17.3762 27.8982 17.4869 27.992 17.58C28.085 17.6737 28.1957 17.7481 28.3177 17.7988C28.4396 17.8496 28.5704 17.8757 28.7025 17.8757C28.8346 17.8757 28.9654 17.8496 29.0873 17.7988C29.2093 17.7481 29.32 17.6737 29.4131 17.58L30.0858 16.9035C31.1215 18.1999 31.8056 19.7911 31.9946 21.5373H31.0534C30.7878 21.5373 30.533 21.6428 30.3452 21.8306C30.1574 22.0185 30.0518 22.2732 30.0518 22.5389C30.0518 22.8045 30.1574 23.0593 30.3452 23.2471C30.533 23.4349 30.7878 23.5405 31.0534 23.5405H32.0475V25.5436H27.0471C27.0471 24.5458 26.6766 23.6274 26.0644 22.9244L27.7501 21.2387C27.8881 21.0987 27.9818 20.9211 28.0196 20.7282C28.0574 20.5353 28.0376 20.3355 27.9626 20.1537C27.8877 19.972 27.7609 19.8163 27.5981 19.7061C27.4353 19.596 27.2436 19.5361 27.0471 19.5341C26.915 19.534 26.7843 19.5599 26.6623 19.6105C26.5404 19.6611 26.4296 19.7353 26.3365 19.8289L24.3862 21.7716C23.7818 21.5597 23.1354 21.4952 22.501 21.5836C21.8666 21.6719 21.2625 21.9105 20.739 22.2795C20.2154 22.6485 19.7876 23.1372 19.4911 23.705C19.1946 24.2728 19.038 24.9031 19.0343 25.5436H14.0225V23.5405H15.0204C15.286 23.5405 15.5408 23.4349 15.7286 23.2471C15.9164 23.0593 16.0219 22.8045 16.0219 22.5389C16.0219 22.2732 15.9164 22.0185 15.7286 21.8306C15.5408 21.6428 15.286 21.5373 15.0204 21.5373H14.0755C14.2682 19.7911 14.9523 18.1999 15.9879 16.9035L16.6607 17.58C16.754 17.6728 16.8647 17.7464 16.9864 17.7964C17.1082 17.8465 17.2385 17.872 17.3702 17.8717C17.5018 17.8713 17.632 17.8451 17.7535 17.7944C17.875 17.7437 17.9852 17.6696 18.0781 17.5762C18.1709 17.4829 18.2444 17.3722 18.2944 17.2505C18.3445 17.1288 18.3701 16.9984 18.3697 16.8668C18.3694 16.7352 18.3431 16.6049 18.2924 16.4835C18.2417 16.362 18.1676 16.2517 18.0743 16.1589L17.4015 15.4899C18.7303 14.4247 20.3387 13.76 22.0315 13.5736ZM41.0618 15.5239C40.2668 15.5269 39.5052 15.844 38.9431 16.4062C38.3809 16.9683 38.0638 17.7299 38.0608 18.5249H37.0554C36.7898 18.5249 36.535 18.6304 36.3472 18.8183C36.1594 19.0061 36.0538 19.2609 36.0538 19.5265C36.0538 19.7922 36.1594 20.0469 36.3472 20.2348C36.535 20.4226 36.7898 20.5281 37.0554 20.5281H38.0608C38.0638 21.3242 38.3805 22.0869 38.9424 22.6509C39.5042 23.2148 40.2658 23.5345 41.0618 23.5405C42.7097 23.5405 44.0742 22.1798 44.0742 20.5281H55.0879C55.3536 20.5281 55.6083 20.4226 55.7962 20.2348C55.984 20.0469 56.0895 19.7922 56.0895 19.5265C56.0895 19.2609 55.984 19.0061 55.7962 18.8183C55.6083 18.6304 55.3536 18.5249 55.0879 18.5249H44.0742C44.0682 17.7289 43.7486 16.9673 43.1846 16.4055C42.6206 15.8437 41.8579 15.5269 41.0618 15.5239ZM41.0618 17.5271C41.1944 17.5235 41.3263 17.5468 41.4496 17.5955C41.5729 17.6443 41.685 17.7174 41.7793 17.8107C41.8736 17.9039 41.9481 18.0152 41.9982 18.138C42.0483 18.2607 42.0731 18.3924 42.071 18.5249V20.5281C42.0741 20.6615 42.0501 20.7941 42.0005 20.9179C41.9509 21.0418 41.8766 21.1543 41.7823 21.2486C41.688 21.3429 41.5755 21.4172 41.4516 21.4668C41.3278 21.5164 41.1952 21.5404 41.0618 21.5373C40.9291 21.5399 40.7972 21.5155 40.6742 21.4656C40.5512 21.4156 40.4397 21.3412 40.3463 21.2468C40.253 21.1524 40.1799 21.04 40.1313 20.9165C40.0828 20.7929 40.0599 20.6608 40.064 20.5281V18.5249C40.064 17.9542 40.4911 17.5271 41.0618 17.5271ZM4.01038 23.3477V34.5618C4.01038 34.8274 4.1159 35.0822 4.30374 35.27C4.49157 35.4578 4.74633 35.5634 5.01197 35.5634C5.27761 35.5634 5.53237 35.4578 5.7202 35.27C5.90804 35.0822 6.01357 34.8274 6.01357 34.5618V27.2482C6.01357 26.7682 6.11939 26.7002 6.2479 26.6284C6.37641 26.5604 6.675 26.515 7.07941 26.6813C7.88069 27.0064 8.94654 28.1062 9.01079 30.287V34.5542C9.01079 35.3857 9.43411 36.0547 9.87254 36.5876C10.3072 37.1168 10.8061 37.5779 11.271 38.0995C12.197 39.1502 13.0172 40.337 13.0209 42.5708C13.0209 42.8364 13.1265 43.0912 13.3143 43.279C13.5021 43.4668 13.7569 43.5723 14.0225 43.5723C14.2882 43.5723 14.5429 43.4668 14.7308 43.279C14.9186 43.0912 15.0241 42.8364 15.0241 42.5708H20.3042C20.1644 43.9957 19.7675 45.2921 19.3404 46.4789C18.9749 47.488 18.6893 48.5243 18.4863 49.5781H5.00441V46.5658C5.00441 45.8174 4.78897 45.0502 4.49417 44.1279C4.20314 43.2057 3.81762 42.1777 3.44344 41.1269C2.69885 39.0293 2.00341 36.788 2.00341 35.7259V27.1991C2.00341 26.4054 2.19239 25.4189 2.67618 24.629C2.99323 24.0862 3.45524 23.6425 4.01038 23.3477ZM23.0407 23.5367C24.1557 23.5367 25.0439 24.4249 25.0439 25.5399H21.0375C21.0375 24.4249 21.9219 23.5367 23.0407 23.5367ZM50.0762 25.5399V38.5606C50.1064 39.8683 52.0491 39.8683 52.0794 38.5606V34.5542C52.0794 33.9835 52.514 33.5451 53.0847 33.5451C53.6555 33.5451 54.0825 33.9835 54.0825 34.5542V38.5606C54.1128 39.8683 56.0555 39.8683 56.0857 38.5606V35.552C56.0836 35.4195 56.1084 35.2878 56.1585 35.1651C56.2086 35.0423 56.2831 34.931 56.3774 34.8378C56.4717 34.7445 56.5838 34.6714 56.7071 34.6226C56.8305 34.5739 56.9623 34.5506 57.0949 34.5542C57.6618 34.5542 58.0889 34.9813 58.0889 35.552V38.5606C58.1192 39.8683 60.0657 39.8683 60.0921 38.5606V36.5574C60.0921 35.9867 60.5192 35.552 61.0899 35.552C61.2228 35.5489 61.3549 35.5728 61.4783 35.6222C61.6017 35.6717 61.7138 35.7456 61.8077 35.8396C61.9017 35.9336 61.9757 36.0456 62.0251 36.169C62.0745 36.2924 62.0984 36.4245 62.0953 36.5574V45.568C62.0953 46.853 61.672 47.9416 61.1806 49.0452C60.8178 49.8578 60.3983 50.6704 60.2017 51.5813H47.6912L40.5856 37.3322C40.1698 36.5083 40.3626 35.6503 41.0996 35.227C41.2696 35.1247 41.4583 35.0576 41.6547 35.0296C41.8511 35.0016 42.0511 35.0133 42.2428 35.0641C42.4346 35.1149 42.6142 35.2036 42.771 35.3251C42.9278 35.4465 43.0586 35.5983 43.1557 35.7712L46.2096 41.0589C46.7237 41.9282 48.0541 41.5729 48.0692 40.5638V25.5436C48.0692 24.9691 48.5076 24.5383 49.0784 24.5345C49.6491 24.5307 50.0762 24.9654 50.0762 25.5399ZM14.0339 38.5606H38.949L39.9506 40.5638H14.7936C14.6318 39.8654 14.3738 39.1917 14.0339 38.5606ZM5.00441 51.5813H19.0343C19.6012 51.5813 20.0283 52.0084 20.0283 52.5791V61.5897C20.0319 61.7218 20.0087 61.8532 19.9602 61.976C19.9117 62.0989 19.8388 62.2106 19.7459 62.3046C19.653 62.3985 19.5421 62.4726 19.4198 62.5226C19.2975 62.5725 19.1664 62.5972 19.0343 62.5951H5.00441C4.87233 62.5972 4.7412 62.5725 4.61891 62.5226C4.49661 62.4726 4.38569 62.3985 4.29282 62.3046C4.19995 62.2106 4.12704 62.0989 4.0785 61.976C4.02996 61.8532 4.00679 61.7218 4.01038 61.5897V52.5829C4.01038 52.0122 4.43369 51.5813 5.00441 51.5813ZM47.0714 53.5845H61.0937C61.6606 53.5845 62.0953 54.0116 62.0953 54.5823V61.5897C62.0984 61.7226 62.0745 61.8547 62.0251 61.9781C61.9757 62.1015 61.9017 62.2135 61.8077 62.3075C61.7138 62.4015 61.6017 62.4755 61.4783 62.5249C61.3549 62.5743 61.2228 62.5982 61.0899 62.5951H47.0714C46.9385 62.5982 46.8064 62.5743 46.683 62.5249C46.5596 62.4755 46.4475 62.4015 46.3536 62.3075C46.2596 62.2135 46.1856 62.1015 46.1362 61.9781C46.0868 61.8547 46.0629 61.7226 46.066 61.5897V54.5861C46.066 54.0154 46.5007 53.5845 47.0714 53.5845Z" fill="black"/>
</g>
<defs>
<clipPath id="clip0_207_1358">
<rect width="64" height="64" fill="white" transform="translate(0 0.5)"/>
</clipPath>
</defs>
</svg>
