<svg width="48" height="49" viewBox="0 0 48 49" fill="none" xmlns="http://www.w3.org/2000/svg">
<path d="M47.1897 28.6814C46.976 27.2302 46.7922 25.9739 46.7322 25.1677C46.5335 22.4752 45.806 21.0427 44.2947 20.3189C43.6456 20.0149 42.9335 19.8697 42.2172 19.8952C41.9997 18.9802 41.5572 17.4989 40.8822 16.8314C39.7197 15.6839 38.126 15.6502 37.1922 15.7589C37.062 15.3302 36.832 14.9384 36.521 14.6157C36.2101 14.2931 35.8271 14.0487 35.4035 13.9027C34.3764 13.6038 33.2752 13.6933 32.3097 14.1539C32.0172 9.67267 31.6422 5.55142 31.2147 4.70767C31.0659 4.36366 30.8305 4.06404 30.5315 3.83798C30.2325 3.61192 29.88 3.46712 29.5085 3.41767C28.3572 3.27517 27.2285 4.08892 26.8835 4.48267C26.6435 4.76017 26.471 4.95892 26.486 13.1077C26.486 16.9289 26.5535 21.2639 26.6097 22.0327C26.6585 22.6889 26.5685 25.0327 26.4635 27.2827C26.2803 26.9988 26.121 26.7003 25.9872 26.3902C25.1397 24.5152 23.3622 22.9814 21.0335 22.0852C19.4997 21.5002 18.071 21.6577 17.2047 22.5052C16.8938 22.8048 16.6768 23.1884 16.5802 23.6093C16.4837 24.0301 16.5117 24.47 16.661 24.8752C16.9497 25.6777 17.606 26.4614 18.3635 27.3689C19.0655 28.1582 19.6931 29.0106 20.2385 29.9152C20.73 30.8589 21.1475 31.8393 21.4872 32.8477C21.8765 34.0187 22.3788 35.149 22.9872 36.2227C23.2685 36.6877 23.576 37.1789 23.891 37.6852C24.8518 39.1645 25.7282 40.6969 26.516 42.2752C27.4497 44.3114 30.8397 46.0252 31.2222 46.2352C31.3112 46.2813 31.4086 46.3091 31.5085 46.317C31.6085 46.3248 31.709 46.3125 31.8041 46.2809C31.8992 46.2492 31.987 46.1988 32.0623 46.1327C32.1376 46.0665 32.1989 45.9859 32.2425 45.8956C32.2862 45.8054 32.3113 45.7073 32.3163 45.6072C32.3214 45.507 32.3063 45.4069 32.272 45.3127C32.2378 45.2185 32.1849 45.1321 32.1167 45.0587C32.0484 44.9853 31.9662 44.9263 31.8747 44.8852C30.9635 44.4314 28.4697 42.9652 27.8622 41.6414C27.0434 40.0007 26.1293 38.4092 25.1247 36.8752C24.8135 36.3764 24.5097 35.8889 24.2322 35.4277C23.6824 34.4459 23.2278 33.4136 22.8747 32.3452C22.5097 31.2626 22.0595 30.2105 21.5285 29.1989C20.9407 28.2124 20.2615 27.2833 19.4997 26.4239C18.8585 25.6739 18.2547 24.9239 18.056 24.3839C18.0042 24.2493 17.9941 24.1023 18.0269 23.9619C18.0596 23.8215 18.1338 23.6942 18.2397 23.5964C18.5772 23.2664 19.3422 23.0714 20.4897 23.5064C23.1522 24.5227 24.2135 26.1314 24.6147 27.0277C24.9951 27.9475 25.592 28.7618 26.3547 29.4014C26.3172 30.0839 26.2872 30.6877 26.261 31.1302C26.2497 31.3285 26.3176 31.5233 26.4498 31.6716C26.582 31.82 26.7676 31.9098 26.966 31.9214H26.9997C27.1911 31.9218 27.3753 31.849 27.5148 31.7179C27.6542 31.5868 27.7383 31.4074 27.7497 31.2164C27.7497 30.8939 28.1997 23.3414 28.0947 21.9239C27.9747 20.1652 27.9035 7.13767 28.1247 5.37517C28.4594 5.09025 28.8816 4.92876 29.321 4.91767C29.411 4.91767 29.651 4.95892 29.8685 5.39392C30.2097 6.09142 30.6185 10.8389 30.9485 16.6739V16.8052C31.1285 19.9027 31.286 23.3039 31.4097 26.5552C31.4172 26.7541 31.5034 26.9419 31.6493 27.0773C31.7952 27.2126 31.9889 27.2845 32.1879 27.277C32.3868 27.2696 32.5746 27.1834 32.71 27.0375C32.8453 26.8916 32.9172 26.6978 32.9097 26.4989C32.8535 24.9989 32.6847 20.7727 32.4297 16.4264C32.4226 16.2701 32.453 16.1144 32.5182 15.9722C32.5834 15.83 32.6817 15.7055 32.8047 15.6089C33.3597 15.1702 34.4097 15.1702 34.9272 15.3352C35.7522 15.6014 35.8647 16.6477 35.8685 16.6889C35.8685 16.7564 36.536 23.6602 36.6185 25.2277C36.629 25.4193 36.7127 25.5997 36.8522 25.7315C36.9917 25.8634 37.1765 25.9367 37.3685 25.9364H37.4135C37.6118 25.9248 37.7975 25.835 37.9297 25.6866C38.0618 25.5383 38.1298 25.3435 38.1185 25.1452C38.0435 23.8327 37.5935 19.0514 37.4247 17.2439C38.0772 17.1802 39.1122 17.2139 39.8135 17.9039C40.2447 18.3277 40.6947 19.8914 40.8785 20.8664V20.9227C41.2622 22.5084 41.3963 24.1443 41.276 25.7714C41.2661 25.8694 41.2757 25.9684 41.3041 26.0627C41.3325 26.157 41.3792 26.2448 41.4415 26.3211C41.5039 26.3973 41.5806 26.4606 41.6674 26.5072C41.7541 26.5538 41.8492 26.5828 41.9472 26.5927H42.0222C42.2088 26.5936 42.389 26.525 42.5277 26.4002C42.6664 26.2753 42.7536 26.1033 42.7722 25.9177C42.8947 24.4132 42.8102 22.8991 42.521 21.4177C42.9105 21.4362 43.2926 21.5304 43.646 21.6952C44.4635 22.0702 45.041 22.8202 45.2247 25.2952C45.2885 26.1539 45.476 27.4327 45.6935 28.9139C46.0947 31.6589 46.5972 35.0752 46.4885 37.1639C46.3235 40.3289 45.0222 45.1664 45.011 45.2152C44.9839 45.3162 44.9783 45.4218 44.9944 45.5251C45.0106 45.6284 45.0481 45.7272 45.1047 45.8152L46.6047 48.1702C46.715 48.3301 46.8831 48.441 47.0734 48.4795C47.2638 48.518 47.4618 48.4811 47.6255 48.3766C47.7893 48.2722 47.9061 48.1082 47.9514 47.9193C47.9968 47.7304 47.967 47.5313 47.8685 47.3639L46.541 45.2864C46.841 44.1239 47.8347 40.1189 47.9847 37.2427C48.116 35.0002 47.6022 31.4939 47.1897 28.6814Z" fill="#F55733"/>
<path d="M0.749807 6.50014H22.5823C22.7629 7.52987 23.2581 8.47836 23.9998 9.21515C24.0695 9.28483 24.1522 9.3401 24.2433 9.37782C24.3343 9.41553 24.4319 9.43494 24.5304 9.43494C24.629 9.43494 24.7266 9.41553 24.8176 9.37782C24.9086 9.3401 24.9914 9.28483 25.0611 9.21515C25.1307 9.14546 25.186 9.06274 25.2237 8.97169C25.2614 8.88065 25.2808 8.78307 25.2808 8.68452C25.2808 8.58597 25.2614 8.48839 25.2237 8.39735C25.186 8.3063 25.1307 8.22358 25.0611 8.15389C24.4757 7.56618 24.1115 6.79419 24.0302 5.96869C23.9488 5.1432 24.1554 4.31497 24.6148 3.62432C25.0742 2.93366 25.7582 2.42306 26.551 2.179C27.3437 1.93494 28.1965 1.97244 28.9648 2.28514C29.0559 2.32257 29.1535 2.34169 29.252 2.3414C29.3505 2.34111 29.448 2.32143 29.5388 2.28348C29.7224 2.20682 29.868 2.06039 29.9436 1.87639C29.981 1.78529 30.0001 1.68771 29.9998 1.58921C29.9995 1.49072 29.9798 1.39325 29.9419 1.30236C29.9039 1.21148 29.8484 1.12896 29.7786 1.05952C29.7088 0.990076 29.6259 0.935071 29.5348 0.897645C28.8088 0.59897 28.0236 0.472173 27.2406 0.527156C26.4575 0.582139 25.6977 0.817414 25.0206 1.2146C24.3435 1.61179 23.7674 2.16014 23.3372 2.81682C22.9071 3.4735 22.6346 4.22073 22.5411 5.00014H0.749807C0.550895 5.00014 0.36013 5.07916 0.219477 5.21981C0.0788251 5.36047 -0.000192601 5.55123 -0.000192601 5.75014C-0.000192601 5.94906 0.0788251 6.13982 0.219477 6.28047C0.36013 6.42113 0.550895 6.50014 0.749807 6.50014ZM33.7498 5.00014C33.5509 5.00014 33.3601 5.07916 33.2195 5.21981C33.0788 5.36047 32.9998 5.55123 32.9998 5.75014C32.9998 5.94906 33.0788 6.13982 33.2195 6.28047C33.3601 6.42113 33.5509 6.50014 33.7498 6.50014H47.2498C47.4487 6.50014 47.6395 6.42113 47.7801 6.28047C47.9208 6.13982 47.9998 5.94906 47.9998 5.75014C47.9998 5.55123 47.9208 5.36047 47.7801 5.21981C47.6395 5.07916 47.4487 5.00014 47.2498 5.00014H33.7498ZM5.24981 29.7501C6.51119 29.7487 7.72988 29.2931 8.68291 28.4668C9.63595 27.6404 10.2596 26.4986 10.4398 25.2501H14.2498C14.4487 25.2501 14.6395 25.1711 14.7801 25.0305C14.9208 24.8898 14.9998 24.6991 14.9998 24.5001C14.9998 24.3012 14.9208 24.1105 14.7801 23.9698C14.6395 23.8292 14.4487 23.7501 14.2498 23.7501H10.4398C10.296 22.7539 9.86884 21.82 9.20919 21.0596C8.54953 20.2993 7.68522 19.7447 6.7192 19.4618C5.75319 19.1789 4.72621 19.1796 3.76062 19.464C2.79503 19.7483 1.93153 20.3043 1.27301 21.0655C0.614495 21.8268 0.188712 22.7614 0.0463943 23.7579C-0.0959233 24.7543 0.0512243 25.7707 0.470306 26.6859C0.889387 27.6011 1.56273 28.3766 2.41012 28.9198C3.25751 29.4631 4.24322 29.7513 5.24981 29.7501ZM5.24981 20.7501C5.99149 20.7501 6.71651 20.9701 7.3332 21.3821C7.94988 21.7942 8.43053 22.3799 8.71436 23.0651C8.99818 23.7503 9.07245 24.5043 8.92775 25.2317C8.78306 25.9592 8.4259 26.6274 7.90146 27.1518C7.37701 27.6762 6.70882 28.0334 5.9814 28.1781C5.25397 28.3228 4.49997 28.2485 3.81474 27.9647C3.12952 27.6809 2.54385 27.2002 2.1318 26.5835C1.71974 25.9669 1.49981 25.2418 1.49981 24.5001C1.49981 23.5056 1.8949 22.5518 2.59816 21.8485C3.30142 21.1452 4.25525 20.7501 5.24981 20.7501ZM0.749807 44.0001H11.3098C11.499 45.241 12.1266 46.3731 13.0787 47.191C14.0309 48.009 15.2446 48.4587 16.4998 48.4587C17.755 48.4587 18.9687 48.009 19.9209 47.191C20.873 46.3731 21.5006 45.241 21.6898 44.0001H24.3748C24.5737 44.0001 24.7645 43.9211 24.9051 43.7805C25.0458 43.6398 25.1248 43.4491 25.1248 43.2501C25.1248 43.0512 25.0458 42.8605 24.9051 42.7198C24.7645 42.5792 24.5737 42.5001 24.3748 42.5001H21.6898C21.5006 41.2593 20.873 40.1272 19.9209 39.3093C18.9687 38.4913 17.755 38.0416 16.4998 38.0416C15.2446 38.0416 14.0309 38.4913 13.0787 39.3093C12.1266 40.1272 11.499 41.2593 11.3098 42.5001H0.749807C0.550895 42.5001 0.36013 42.5792 0.219477 42.7198C0.0788251 42.8605 -0.000192601 43.0512 -0.000192601 43.2501C-0.000192601 43.4491 0.0788251 43.6398 0.219477 43.7805C0.36013 43.9211 0.550895 44.0001 0.749807 44.0001ZM16.4998 39.5001C17.2415 39.5001 17.9665 39.7201 18.5832 40.1321C19.1999 40.5442 19.6805 41.1299 19.9644 41.8151C20.2482 42.5003 20.3224 43.2543 20.1778 43.9817C20.0331 44.7092 19.6759 45.3774 19.1515 45.9018C18.627 46.4262 17.9588 46.7834 17.2314 46.9281C16.504 47.0728 15.75 46.9985 15.0647 46.7147C14.3795 46.4309 13.7939 45.9502 13.3818 45.3335C12.9697 44.7169 12.7498 43.9918 12.7498 43.2501C12.7498 42.2556 13.1449 41.3018 13.8482 40.5985C14.5514 39.8952 15.5052 39.5001 16.4998 39.5001Z" fill="#F55733"/>
</svg>
