<svg width="64" height="65" viewBox="0 0 64 65" fill="none" xmlns="http://www.w3.org/2000/svg">
<path d="M27.5807 55.9304C27.4481 55.9403 27.3169 55.8972 27.2161 55.8104C27.1153 55.7237 27.0531 55.6005 27.0432 55.4679C27.0332 55.3353 27.0764 55.2041 27.1631 55.1033C27.2498 55.0025 27.3731 54.9403 27.5057 54.9304L34.8757 53.8404C36.3442 53.6225 37.718 52.9833 38.8307 52.0004L48.7057 43.3504C48.581 43.2915 48.4523 43.2413 48.3207 43.2004C46.3807 42.7004 44.4707 43.8204 43.5057 44.5404L37.6507 48.9204C36.8492 49.5148 35.8785 49.8372 34.8807 49.8404H32.7907C31.9883 49.8415 31.1994 49.6348 30.5007 49.2404L27.2257 47.1054C24.0184 45.0149 20.1217 44.2596 16.3657 45.0004C16.3 45.0129 16.2325 45.0123 16.1671 44.9987C16.1017 44.9851 16.0395 44.9587 15.9843 44.9211C15.929 44.8835 15.8817 44.8354 15.8451 44.7795C15.8084 44.7236 15.7831 44.661 15.7707 44.5954C15.7582 44.5297 15.7588 44.4622 15.7724 44.3968C15.786 44.3314 15.8123 44.2692 15.8499 44.214C15.8875 44.1587 15.9357 44.1114 15.9916 44.0748C16.0474 44.0381 16.11 44.0129 16.1757 44.0004C20.1952 43.2059 24.366 44.021 27.7907 46.2704L31.0307 48.3854C31.5695 48.6832 32.175 48.8398 32.7907 48.8404H34.8807C35.6626 48.84 36.4236 48.5875 37.0507 48.1204L42.9057 43.7554C44.0157 42.9304 46.2307 41.6354 48.5757 42.2554C49.007 42.4077 49.4279 42.5881 49.8357 42.7954C49.9096 42.8316 49.9735 42.8855 50.0217 42.9523C50.0698 43.0191 50.1007 43.0968 50.1115 43.1784C50.1224 43.2601 50.113 43.3431 50.084 43.4202C50.0551 43.4973 50.0076 43.5661 49.9457 43.6204L39.5007 52.7704C38.2318 53.8793 36.6688 54.5966 35.0007 54.8354L27.6507 55.9254L27.5807 55.9304ZM41.0407 59.2854C40.7182 59.2846 40.3961 59.2663 40.0757 59.2304L35.0007 58.6404C34.8681 58.6251 34.7469 58.5578 34.664 58.4533C34.581 58.3487 34.5429 58.2155 34.5582 58.0829C34.5734 57.9503 34.6407 57.8291 34.7453 57.7462C34.8498 57.6632 34.9831 57.6251 35.1157 57.6404L40.1957 58.2304C41.2789 58.3549 42.3763 58.2405 43.4107 57.8954L57.4107 53.2204C56.6207 52.1804 55.7707 51.9254 54.2957 52.2204C54.1657 52.2453 54.0312 52.2178 53.9216 52.1437C53.8119 52.0697 53.7361 51.9552 53.7107 51.8254C53.6857 51.6954 53.7133 51.5609 53.7873 51.4513C53.8613 51.3416 53.9758 51.2658 54.1057 51.2404C56.2307 50.8254 57.4957 51.3854 58.6057 53.2404C58.6449 53.3041 58.6693 53.3758 58.677 53.4503C58.6848 53.5247 58.6758 53.5999 58.6507 53.6704C58.6248 53.7418 58.583 53.8064 58.5284 53.8592C58.4738 53.9121 58.4079 53.9518 58.3357 53.9754L43.7207 58.8504C42.8568 59.1397 41.9517 59.2866 41.0407 59.2854Z" fill="#F55733"/>
<path d="M28.6408 59.8854C27.3264 59.8858 26.026 59.6152 24.8208 59.0904L13.0508 53.9554C10.1873 52.7026 7.01362 52.3385 3.94083 52.9104C3.87517 52.9225 3.80776 52.9216 3.74245 52.9077C3.67713 52.8938 3.6152 52.8672 3.56018 52.8293C3.44907 52.7529 3.37286 52.6355 3.34833 52.5029C3.33618 52.4372 3.33709 52.3698 3.35099 52.3045C3.36489 52.2392 3.39153 52.1772 3.42937 52.1222C3.50579 52.0111 3.62322 51.9349 3.75583 51.9104C7.02517 51.2979 10.4032 51.6829 13.4508 53.0154L25.2208 58.1554C26.8961 58.8827 28.7594 59.0578 30.5408 58.6554L41.8308 56.0504C42.8852 55.8119 43.8824 55.3685 44.7658 54.7454L59.3708 45.3754C58.6446 44.7581 57.748 44.376 56.7998 44.2796C55.8516 44.1831 54.8965 44.3769 54.0608 44.8354C54.0048 44.8701 53.9424 44.8933 53.8773 44.9038C53.8122 44.9143 53.7456 44.9118 53.6815 44.8964C53.6174 44.8811 53.5569 44.8532 53.5036 44.8144C53.4503 44.7756 53.4051 44.7267 53.3708 44.6704C53.3364 44.614 53.3134 44.5513 53.3033 44.486C53.2932 44.4207 53.2961 44.3541 53.3119 44.2899C53.3277 44.2257 53.3561 44.1654 53.3954 44.1122C53.4347 44.0591 53.4841 44.0143 53.5408 43.9804C54.6677 43.3555 55.9729 43.1305 57.244 43.3421C58.5151 43.5536 59.6771 44.1892 60.5408 45.1454C60.5869 45.1993 60.621 45.2624 60.6408 45.3305C60.6607 45.3986 60.6658 45.4701 60.6558 45.5404C60.645 45.6106 60.6193 45.6776 60.5805 45.7371C60.5417 45.7966 60.4907 45.8471 60.4308 45.8854L45.3308 55.5754C44.3448 56.2655 43.2343 56.7579 42.0608 57.0254L30.7708 59.6304C30.0727 59.7955 29.3582 59.8811 28.6408 59.8854Z" fill="#F55733"/>
<path d="M42.5804 54.0953C42.5057 54.0955 42.4319 54.079 42.3644 54.047C42.2969 54.015 42.2374 53.9683 42.1904 53.9103C42.1488 53.8591 42.1178 53.8003 42.0991 53.7371C42.0804 53.6739 42.0743 53.6077 42.0813 53.5422C42.0883 53.4767 42.1081 53.4132 42.1397 53.3554C42.1713 53.2975 42.214 53.2465 42.2654 53.2053L57.2654 40.9403C56.2767 40.5333 55.2018 40.3804 54.1389 40.4957C53.0759 40.611 52.0588 40.9907 51.1804 41.6003C51.1262 41.6383 51.0651 41.6653 51.0005 41.6795C50.9358 41.6938 50.869 41.695 50.8039 41.6833C50.7388 41.6715 50.6766 41.6469 50.6211 41.611C50.5655 41.575 50.5177 41.5284 50.4803 41.4738C50.4429 41.4192 50.4167 41.3577 50.4033 41.2929C50.3898 41.2281 50.3893 41.1613 50.4019 41.0963C50.4145 41.0313 50.4398 40.9695 50.4765 40.9144C50.5131 40.8593 50.5603 40.812 50.6154 40.7753C51.7519 39.9872 53.0865 39.5335 54.4678 39.4654C55.8491 39.3974 57.2219 39.7178 58.4304 40.3903C58.502 40.4302 58.5627 40.487 58.6072 40.5559C58.6517 40.6248 58.6785 40.7036 58.6854 40.7853C58.6926 40.8662 58.6799 40.9476 58.6485 41.0225C58.6172 41.0975 58.568 41.1636 58.5054 41.2153L42.8954 54.0003C42.8041 54.0666 42.6931 54.1001 42.5804 54.0953ZM29.2304 48.1303C29.1308 48.1308 29.0334 48.1015 28.9505 48.0463C28.8677 47.9911 28.8032 47.9124 28.7654 47.8203C28.7401 47.7592 28.7272 47.6938 28.7273 47.6278C28.7275 47.5617 28.7408 47.4963 28.7663 47.4354C28.7919 47.3745 28.8293 47.3193 28.8763 47.2729C28.9233 47.2266 28.9791 47.19 29.0404 47.1653L30.8904 46.4053C32.76 45.6673 34.8256 45.5897 36.7454 46.1853L39.0604 46.8753C39.128 46.8895 39.192 46.9177 39.2482 46.9579C39.3044 46.9981 39.3517 47.0495 39.387 47.109C39.4223 47.1684 39.4449 47.2345 39.4534 47.3031C39.4619 47.3717 39.4561 47.4413 39.4364 47.5075C39.4166 47.5737 39.3833 47.6352 39.3386 47.6879C39.2939 47.7406 39.2387 47.7835 39.1766 47.8138C39.1145 47.8441 39.0468 47.8613 38.9777 47.8641C38.9087 47.8669 38.8398 47.8554 38.7754 47.8303L36.4604 47.1403C34.773 46.6167 32.9583 46.6783 31.3104 47.3153L29.4204 48.0903C29.36 48.115 29.2956 48.1285 29.2304 48.1303ZM43.2054 44.6553C43.142 44.6554 43.0793 44.6436 43.0204 44.6203L33.7204 40.9203C33.0013 40.6314 32.2585 40.4056 31.5004 40.2453C27.5004 39.4253 4.11537 40.4503 3.88037 40.4653C3.74776 40.4653 3.62059 40.4126 3.52682 40.3188C3.43305 40.2251 3.38037 40.0979 3.38037 39.9653C3.38037 39.8327 3.43305 39.7055 3.52682 39.6117C3.62059 39.518 3.74776 39.4653 3.88037 39.4653C4.84537 39.4203 27.6304 38.4203 31.7454 39.2653C32.545 39.4427 33.3279 39.6886 34.0854 40.0003L43.3904 43.7003C43.4515 43.7245 43.5072 43.7606 43.5543 43.8064C43.6015 43.8522 43.6392 43.9068 43.6652 43.9672C43.6912 44.0276 43.705 44.0925 43.7059 44.1582C43.7068 44.224 43.6947 44.2892 43.6704 44.3503C43.6318 44.4414 43.567 44.5191 43.4842 44.5734C43.4014 44.6277 43.3044 44.6562 43.2054 44.6553ZM32.0004 33.4353C31.9346 33.4357 31.8693 33.423 31.8084 33.3982C31.7475 33.3733 31.6921 33.3366 31.6454 33.2903L17.4354 19.0803C17.389 19.0336 17.3524 18.9781 17.3275 18.9172C17.3026 18.8563 17.29 18.7911 17.2904 18.7253C17.2922 18.5929 17.344 18.4661 17.4354 18.3703L23.0004 12.8003C23.0935 12.7079 23.2192 12.6558 23.3504 12.6553H40.6404C40.7715 12.6558 40.8972 12.7079 40.9904 12.8003L46.5654 18.3703C46.6567 18.4661 46.7085 18.5929 46.7104 18.7253C46.7108 18.7911 46.6981 18.8563 46.6733 18.9172C46.6484 18.9781 46.6117 19.0336 46.5654 19.0803L32.3554 33.2903C32.3086 33.3366 32.2532 33.3733 32.1923 33.3982C32.1314 33.423 32.0662 33.4357 32.0004 33.4353ZM18.5004 18.7253L32.0004 32.2253L45.5004 18.7253L40.4304 13.6553H23.5704L18.5004 18.7253Z" fill="#F55733"/>
<path d="M46.2105 19.2253H17.7905C17.6579 19.2253 17.5307 19.1727 17.437 19.0789C17.3432 18.9851 17.2905 18.858 17.2905 18.7253C17.2905 18.5927 17.3432 18.4656 17.437 18.3718C17.5307 18.278 17.6579 18.2253 17.7905 18.2253H46.2105C46.3431 18.2253 46.4703 18.278 46.5641 18.3718C46.6578 18.4656 46.7105 18.5927 46.7105 18.7253C46.7105 18.858 46.6578 18.9851 46.5641 19.0789C46.4703 19.1727 46.3431 19.2253 46.2105 19.2253Z" fill="#F55733"/>
<path d="M32.001 33.4352C31.9143 33.4352 31.829 33.4126 31.7536 33.3696C31.6782 33.3267 31.6153 33.2648 31.571 33.1902L23.001 19.0002C22.948 18.913 22.9229 18.8116 22.9292 18.7097C22.9354 18.6078 22.9727 18.5103 23.036 18.4302L27.501 12.8452C27.5833 12.7411 27.7035 12.6739 27.8352 12.6584C27.967 12.643 28.0994 12.6805 28.2035 12.7627C28.3076 12.8449 28.3748 12.9651 28.3903 13.0969C28.4058 13.2286 28.3683 13.3611 28.286 13.4652L24.061 18.7652L32.431 32.6752C32.4655 32.7316 32.4885 32.7942 32.4986 32.8595C32.5087 32.9248 32.5058 32.9915 32.49 33.0556C32.4742 33.1198 32.4458 33.1802 32.4065 33.2333C32.3672 33.2865 32.3178 33.3313 32.261 33.3652C32.1815 33.4097 32.0922 33.4338 32.001 33.4352Z" fill="#F55733"/>
<path d="M32.0013 33.4352C31.9102 33.4338 31.8209 33.4098 31.7413 33.3652C31.6846 33.3313 31.6352 33.2865 31.5959 33.2334C31.5566 33.1802 31.5282 33.1199 31.5124 33.0557C31.4966 32.9915 31.4937 32.9249 31.5038 32.8596C31.5139 32.7943 31.5369 32.7316 31.5713 32.6752L39.9613 18.7652L35.7363 13.4652C35.6794 13.3625 35.6605 13.2429 35.6829 13.1276C35.7053 13.0122 35.7676 12.9085 35.8589 12.8345C35.9502 12.7605 36.0646 12.721 36.1821 12.723C36.2995 12.725 36.4126 12.7682 36.5013 12.8452L40.9413 18.4152C41.0119 18.4939 41.0557 18.5929 41.0664 18.698C41.0772 18.8031 41.0544 18.9089 41.0013 19.0002L32.4313 33.1902C32.3871 33.2649 32.3242 33.3267 32.2488 33.3697C32.1734 33.4126 32.0881 33.4352 32.0013 33.4352ZM32.0013 8.90523C31.8687 8.90523 31.7416 8.85256 31.6478 8.75879C31.554 8.66502 31.5013 8.53784 31.5013 8.40523V5.61523C31.5013 5.48263 31.554 5.35545 31.6478 5.26168C31.7416 5.16791 31.8687 5.11523 32.0013 5.11523C32.1339 5.11523 32.2611 5.16791 32.3549 5.26168C32.4487 5.35545 32.5013 5.48263 32.5013 5.61523V8.40523C32.5013 8.53784 32.4487 8.66502 32.3549 8.75879C32.2611 8.85256 32.1339 8.90523 32.0013 8.90523ZM27.2213 9.40523C27.1232 9.40515 27.0272 9.37619 26.9454 9.32196C26.8636 9.26772 26.7996 9.19061 26.7613 9.10023L25.5563 6.31023C25.5238 6.24924 25.5043 6.18216 25.499 6.11324C25.4937 6.04432 25.5028 5.97505 25.5256 5.90981C25.5485 5.84457 25.5846 5.78477 25.6317 5.7342C25.6788 5.68362 25.7359 5.64336 25.7994 5.61597C25.8628 5.58857 25.9313 5.57463 26.0004 5.57503C26.0695 5.57542 26.1378 5.59015 26.201 5.61827C26.2641 5.64639 26.3208 5.6873 26.3673 5.73842C26.4138 5.78953 26.4492 5.84974 26.4713 5.91523L27.6813 8.70523C27.7333 8.82662 27.7351 8.96362 27.6863 9.08633C27.6376 9.20904 27.5424 9.3075 27.4213 9.36023C27.3585 9.38889 27.2904 9.40421 27.2213 9.40523ZM36.7813 9.40523C36.7123 9.40421 36.6442 9.38889 36.5813 9.36023C36.4603 9.3075 36.365 9.20904 36.3163 9.08633C36.2676 8.96362 36.2694 8.82662 36.3213 8.70523L37.5313 5.91523C37.5534 5.84974 37.5889 5.78953 37.6354 5.73842C37.6819 5.6873 37.7386 5.64639 37.8017 5.61827C37.8648 5.59015 37.9331 5.57542 38.0023 5.57503C38.0714 5.57463 38.1398 5.58857 38.2033 5.61597C38.2668 5.64336 38.3238 5.68362 38.371 5.7342C38.4181 5.78477 38.4542 5.84457 38.477 5.90981C38.4999 5.97505 38.5089 6.04432 38.5037 6.11324C38.4984 6.18216 38.4789 6.24924 38.4463 6.31023L37.2413 9.10023C37.2031 9.19061 37.139 9.26772 37.0572 9.32196C36.9754 9.37619 36.8795 9.40515 36.7813 9.40523Z" fill="#F55733"/>
</svg>
