<svg width="48" height="49" viewBox="0 0 48 49" fill="none" xmlns="http://www.w3.org/2000/svg">
<path fill-rule="evenodd" clip-rule="evenodd" d="M13.2639 6.63955C13.0831 6.45665 13.0831 6.15993 13.2639 5.97656C18.9108 0.33318 27.9301 0.0713364 33.8856 5.19102L33.7533 2.05809C33.7445 1.79981 33.9429 1.58109 34.203 1.57012C34.4586 1.55999 34.679 1.76006 34.6878 2.0189L34.8642 6.38924C34.848 6.50793 34.7453 6.62512 34.7451 6.62549C34.7451 6.62812 34.7407 6.6299 34.7407 6.63215C34.6945 6.65971 34.6097 6.76949 34.4189 6.77671L30.1516 6.95615C29.8946 6.96815 29.6734 6.76368 29.6624 6.50737C29.6536 6.24909 29.8519 6.03037 30.112 6.0194L33.2551 5.88712C27.67 1.09931 19.2195 1.35018 13.9295 6.63955C13.8412 6.72763 13.7215 6.77708 13.5967 6.77708C13.4719 6.77708 13.3523 6.72763 13.2639 6.63955ZM34.732 42.3591C34.776 42.4024 34.8109 42.454 34.8347 42.511C34.8586 42.5679 34.8709 42.629 34.8709 42.6908C34.8709 42.7525 34.8586 42.8137 34.8347 42.8706C34.8109 42.9276 34.776 42.9792 34.732 43.0225C29.076 48.6525 20.082 48.9426 14.1147 43.8081L14.247 46.9405C14.2495 47.0039 14.2391 47.0672 14.2165 47.1265C14.1939 47.1857 14.1595 47.2398 14.1155 47.2855C14.0714 47.3311 14.0185 47.3674 13.9601 47.392C13.9016 47.4167 13.8388 47.4293 13.7753 47.429C13.5285 47.429 13.3169 47.2319 13.3081 46.9798L13.1273 42.7104C13.1248 42.5925 13.1962 42.4043 13.2596 42.3666C13.2596 42.3644 13.264 42.3618 13.264 42.3591C13.3494 42.2787 13.46 42.2303 13.577 42.2221L17.8486 42.0431C18.1042 42.0338 18.3246 42.2335 18.3334 42.4914C18.3466 42.7502 18.1439 42.9684 17.8882 42.9799L14.7407 43.1117C20.3304 47.8999 28.7809 47.6496 34.0709 42.3592C34.2515 42.1761 34.5512 42.1761 34.732 42.3591ZM38.2321 37.3518V32.7919L44.4257 30.1884V34.7482L38.2321 37.3518ZM31.0951 34.7482V30.1884L37.2931 32.7919V37.3518L31.0951 34.7482ZM37.7604 26.9937L31.8402 29.4822L37.7604 31.9724L43.685 29.4822L37.7604 26.9937ZM45.0781 29.0511L37.9412 26.053C37.8839 26.029 37.8225 26.0167 37.7604 26.0167C37.6983 26.0167 37.6369 26.029 37.5797 26.053L30.4472 29.0511C30.3625 29.087 30.2902 29.1471 30.2393 29.2237C30.1884 29.3003 30.161 29.3902 30.1607 29.4822V35.0595C30.1608 35.1517 30.1881 35.2418 30.239 35.3187C30.29 35.3956 30.3623 35.4558 30.4472 35.492L37.5797 38.49C37.6368 38.5143 37.6984 38.5267 37.7605 38.5266C37.8226 38.5264 37.8841 38.5137 37.9412 38.4892V38.49L45.0781 35.492C45.1629 35.4558 45.2353 35.3956 45.2862 35.3187C45.3371 35.2418 45.3644 35.1517 45.3646 35.0595V29.4822C45.3642 29.3902 45.3369 29.3003 45.286 29.2237C45.235 29.147 45.1628 29.087 45.0781 29.0511ZM38.2321 21.1365V16.5766L44.4257 13.9727V18.533L38.2321 21.1365ZM31.0951 18.533V13.9727L37.2931 16.5766V21.1365L31.0951 18.533ZM37.7604 10.7781L31.8402 13.2674L37.7604 15.7567L43.685 13.2674L37.7604 10.7781ZM45.0781 12.8354L37.9412 9.83737C37.8839 9.81337 37.8225 9.80101 37.7604 9.80101C37.6983 9.80101 37.6369 9.81337 37.5797 9.83737L30.4472 12.8354C30.3624 12.8715 30.29 12.9316 30.2391 13.0084C30.1882 13.0852 30.1609 13.1753 30.1607 13.2674V18.8442C30.1609 18.9364 30.1882 19.0264 30.2391 19.1032C30.29 19.18 30.3624 19.2401 30.4472 19.2762L37.5797 22.2742C37.6368 22.2985 37.6984 22.3109 37.7605 22.3108C37.8226 22.3107 37.8841 22.2979 37.9412 22.2734V22.2742L45.0781 19.2762C45.1628 19.2401 45.2352 19.18 45.2861 19.1032C45.337 19.0264 45.3643 18.9364 45.3646 18.8442V13.2674C45.3643 13.1752 45.3371 13.0852 45.2862 13.0084C45.2352 12.9316 45.1629 12.8714 45.0781 12.8354ZM12.8055 29.07H16.861V29.7449H12.8055V29.07ZM12.7614 30.6825H16.9096C17.4032 30.6825 17.8 30.2831 17.8 29.7916V29.0228C17.8 28.5318 17.4032 28.1319 16.9096 28.1319H12.7614C12.2721 28.1319 11.871 28.5318 11.871 29.0228V29.7916C11.8709 30.2831 12.272 30.6825 12.7614 30.6825ZM11.17 28.0067C11.3551 28.1887 11.3551 28.4854 11.1744 28.6697L9.06287 30.8042C9.01943 30.8483 8.96769 30.8833 8.91063 30.9073C8.85357 30.9313 8.79232 30.9437 8.73043 30.9439C8.66853 30.9441 8.60722 30.9319 8.55003 30.9083C8.49284 30.8846 8.44091 30.8498 8.39724 30.806L7.36571 29.774C6.92621 29.337 7.59334 28.6757 8.02693 29.111L8.72781 29.8105L10.5087 28.0102C10.6895 27.826 10.9848 27.8242 11.17 28.0067ZM12.8055 23.8926H16.861V24.5679H12.8055V23.8926ZM12.7614 25.5055H16.9096C17.4032 25.5055 17.8 25.1057 17.8 24.6142V23.8459C17.8 23.3548 17.4032 22.955 16.9096 22.955H12.7614C12.2721 22.955 11.871 23.3548 11.871 23.8459V24.6142C11.8709 25.1057 12.272 25.5055 12.7614 25.5055ZM11.17 22.8292C11.3551 23.0113 11.3551 23.3084 11.1744 23.4922L9.06287 25.6271C9.01937 25.6711 8.96761 25.7061 8.91055 25.73C8.8535 25.7539 8.79228 25.7663 8.73043 25.7664C8.66857 25.7666 8.60728 25.7545 8.5501 25.7309C8.49292 25.7073 8.44097 25.6726 8.39724 25.6289L7.36571 24.5969C6.92649 24.1596 7.59334 23.4981 8.02693 23.9339L8.72781 24.6331L10.5087 22.8327C10.6895 22.649 10.9848 22.6472 11.17 22.8292ZM12.8055 18.715H16.861V19.3904H12.8055V18.715ZM12.7614 20.328H16.9096C17.4032 20.328 17.8 19.9282 17.8 19.4366V18.6688C17.8 18.1773 17.4032 17.7774 16.9096 17.7774H12.7614C12.2721 17.7774 11.871 18.1773 11.871 18.6688V19.4367C11.8709 19.9282 12.272 20.328 12.7614 20.328ZM8.72781 19.4556L10.5087 17.6557C10.9411 17.2168 11.6071 17.8759 11.1743 18.3148L9.06277 20.4501C9.0192 20.494 8.96741 20.5288 8.91037 20.5527C8.85333 20.5765 8.79215 20.5888 8.73033 20.589C8.66851 20.5892 8.60727 20.5771 8.5501 20.5536C8.49293 20.5301 8.44096 20.4955 8.39715 20.4519L7.36562 19.4195C6.9264 18.9826 7.59305 18.3206 8.02684 18.7565L8.72781 19.4556ZM3.57465 36.5212C3.57465 37.1097 4.05071 37.589 4.64143 37.589H20.3876C20.9783 37.589 21.4544 37.1098 21.4544 36.5212V11.9391C21.4544 11.3502 20.9783 10.8715 20.3876 10.8715H15.1726V12.2385H19.6205C19.682 12.2384 19.7429 12.2505 19.7997 12.274C19.8565 12.2976 19.9081 12.3321 19.9516 12.3756C19.995 12.4192 20.0294 12.4709 20.0527 12.5278C20.0761 12.5846 20.088 12.6456 20.0878 12.7071V35.7533C20.0878 36.0121 19.8806 36.2219 19.6205 36.2219H5.4084C5.34691 36.222 5.28601 36.2099 5.2292 36.1864C5.17239 36.1628 5.12079 36.1283 5.07737 36.0847C5.03395 36.0412 4.99956 35.9895 4.97619 35.9326C4.95281 35.8758 4.9409 35.8148 4.94115 35.7533V12.7071C4.94115 12.4483 5.14834 12.2385 5.4084 12.2385H9.85627V10.8715H4.64143C4.05071 10.8715 3.57465 11.3502 3.57465 11.9391V36.5212ZM14.3968 14.5202H10.6321C10.2046 14.5202 9.85627 14.1724 9.85627 13.7444V13.1762H5.87565V35.2843H19.1533V13.1762H15.1726V13.7444C15.1726 14.1724 14.8245 14.5202 14.3968 14.5202ZM10.7953 9.37359H14.2337V13.583H10.7953V9.37359ZM22.3934 36.5212V11.9391C22.3934 10.8336 21.4941 9.93384 20.3876 9.93384H15.1726V9.21224C15.1726 8.78418 14.8244 8.43599 14.3968 8.43599H10.6321C10.2046 8.43599 9.85627 8.78427 9.85627 9.21224V9.93393H4.64143C3.53499 9.93393 2.63574 10.8336 2.63574 11.9392V36.5212C2.63574 37.6264 3.53499 38.5266 4.64143 38.5266H20.3876C21.494 38.5266 22.3934 37.6264 22.3934 36.5212Z" fill="#F55733"/>
</svg>
