<svg width="46" height="37" viewBox="0 0 46 37" fill="none" xmlns="http://www.w3.org/2000/svg">
<path d="M29.8962 29.8607H24.2281C23.9178 29.8607 23.6656 30.1129 23.6656 30.4232V33.7664C23.6656 34.0767 23.9178 34.3289 24.2281 34.3289H29.8962C30.2066 34.3289 30.4587 34.0767 30.4587 33.7664V30.4232C30.4587 30.1129 30.2075 29.8607 29.8962 29.8607ZM29.3337 33.2039H24.7906V30.9857H29.3337V33.2039ZM40.1619 33.2517C40.1619 33.562 39.9097 33.8142 39.5994 33.8142H35.0384C34.7281 33.8142 34.4759 33.562 34.4759 33.2517C34.4759 32.9414 34.7281 32.6892 35.0384 32.6892H39.5994C39.9097 32.6892 40.1619 32.9404 40.1619 33.2517ZM39.5994 30.3764C39.9097 30.3764 40.1619 30.6285 40.1619 30.9389C40.1619 31.2492 39.9097 31.5014 39.5994 31.5014H35.0384C34.7281 31.5014 34.4759 31.2492 34.4759 30.9389C34.4759 30.6285 34.7281 30.3764 35.0384 30.3764H39.5994ZM9.45875 29.8607H3.78969C3.47938 29.8607 3.22719 30.1129 3.22719 30.4232V33.7664C3.22719 34.0767 3.47938 34.3289 3.78969 34.3289H9.45781C9.76813 34.3289 10.0203 34.0767 10.0203 33.7664V30.4232C10.0213 30.1129 9.76906 29.8607 9.45875 29.8607ZM8.89625 33.2039H4.35219V30.9857H8.89531V33.2039H8.89625ZM19.7234 33.2517C19.7234 33.562 19.4713 33.8142 19.1609 33.8142H14.6C14.2897 33.8142 14.0375 33.562 14.0375 33.2517C14.0375 32.9414 14.2897 32.6892 14.6 32.6892H19.1609C19.4722 32.6892 19.7234 32.9404 19.7234 33.2517ZM19.1609 30.3764C19.4713 30.3764 19.7234 30.6285 19.7234 30.9389C19.7234 31.2492 19.4713 31.5014 19.1609 31.5014H14.6C14.2897 31.5014 14.0375 31.2492 14.0375 30.9389C14.0375 30.6285 14.2897 30.3764 14.6 30.3764H19.1609ZM19.6775 13.2904H14.0094C13.6991 13.2904 13.4469 13.5426 13.4469 13.8529V17.196C13.4469 17.5064 13.6991 17.7585 14.0094 17.7585H19.6775C19.9878 17.7585 20.24 17.5064 20.24 17.196V13.8529C20.24 13.5426 19.9878 13.2904 19.6775 13.2904ZM19.115 16.6345H14.5719V14.4164H19.115V16.6345ZM24.8187 13.806H29.3797C29.69 13.806 29.9422 14.0582 29.9422 14.3685C29.9422 14.6789 29.69 14.931 29.3797 14.931H24.8187C24.5084 14.931 24.2562 14.6789 24.2562 14.3685C24.2562 14.0582 24.5084 13.806 24.8187 13.806ZM29.9422 16.6814C29.9422 16.9917 29.69 17.2439 29.3797 17.2439H24.8187C24.5084 17.2439 24.2562 16.9917 24.2562 16.6814C24.2562 16.371 24.5084 16.1189 24.8187 16.1189H29.3797C29.6909 16.1189 29.9422 16.371 29.9422 16.6814ZM45.3003 11.3826L41.7013 4.83511C41.3909 4.27073 40.895 3.89948 40.2659 3.76167L38.4388 3.36042C37.9822 1.44417 35.1003 0.486045 32.4397 0.407295C30.3444 0.34542 27.8759 0.827296 27.2872 2.33292H11.1875C10.8772 2.33292 10.625 2.58511 10.625 2.89542V18.9032H0.96875C0.658437 18.9032 0.40625 19.1554 0.40625 19.4657V36.036C0.40625 36.3464 0.658437 36.5985 0.96875 36.5985H41.8438C42.1541 36.5985 42.4062 36.3464 42.4062 36.036V19.4657C42.4062 19.1554 42.1541 18.9032 41.8438 18.9032H32.1875V6.37823C32.6047 6.45417 33.0275 6.50854 33.4484 6.54042L33.0069 7.75073C32.7866 8.35542 32.8334 8.97323 33.1438 9.53761L36.7428 16.0851C37.0484 16.642 37.5547 17.046 38.1678 17.2242C38.39 17.2889 38.6159 17.3207 38.84 17.3207C39.2356 17.3207 39.6266 17.2214 39.9819 17.0264L44.3581 14.6207C44.915 14.3151 45.3191 13.8089 45.4972 13.1957C45.6763 12.5826 45.6059 11.9385 45.3003 11.3826ZM31.0634 4.94198C30.4297 4.73573 29.8513 4.47042 29.3816 4.15448C29.1228 3.98011 28.8294 3.74198 28.6287 3.45792H31.0634V4.94198ZM19.0737 3.45792H23.7397V8.86073L21.6181 8.00011C21.4826 7.94479 21.3308 7.94479 21.1953 8.00011L19.0737 8.86073V3.45792ZM8.855 20.0282H13.5209V25.431L11.3994 24.5704C11.2639 24.5151 11.1121 24.5151 10.9766 24.5704L8.855 25.431V20.0282ZM20.8438 35.4735H1.53125V20.0282H7.73V26.2664C7.72993 26.3586 7.75253 26.4494 7.79584 26.5308C7.83914 26.6123 7.90181 26.6818 7.97832 26.7333C8.05482 26.7848 8.14282 26.8167 8.23456 26.8262C8.3263 26.8356 8.41896 26.8224 8.50437 26.7876L11.1875 25.6982L13.8716 26.7876C13.9389 26.8147 14.0108 26.8287 14.0834 26.8289C14.1573 26.8289 14.2305 26.8143 14.2987 26.7861C14.367 26.7578 14.429 26.7164 14.4812 26.6642C14.5335 26.6119 14.5749 26.5499 14.6032 26.4816C14.6314 26.4134 14.646 26.3402 14.6459 26.2664V20.0282H20.8438V35.4735ZM41.2822 35.4735H21.9688V20.0282H28.1675V26.2664C28.1674 26.3586 28.19 26.4494 28.2333 26.5308C28.2766 26.6123 28.3393 26.6818 28.4158 26.7333C28.4923 26.7848 28.5803 26.8167 28.6721 26.8262C28.7638 26.8356 28.8565 26.8224 28.9419 26.7876L31.6259 25.6982L34.31 26.7876C34.3774 26.8147 34.4493 26.8287 34.5219 26.8289C34.5957 26.8289 34.6689 26.8143 34.7372 26.7861C34.8054 26.7578 34.8674 26.7164 34.9197 26.6642C34.9719 26.6119 35.0133 26.5499 35.0416 26.4816C35.0699 26.4134 35.0844 26.3402 35.0844 26.2664V20.0282H41.2831V35.4735H41.2822ZM29.2925 20.0282H33.9584V25.431L31.8369 24.5704C31.7014 24.5151 31.5496 24.5151 31.4141 24.5704L29.2925 25.431V20.0282ZM31.0634 18.9032H11.75V3.45792H17.9487V9.69604C17.9487 9.78827 17.9713 9.8791 18.0146 9.96053C18.0579 10.042 18.1206 10.1115 18.1971 10.163C18.2736 10.2145 18.3616 10.2464 18.4533 10.2558C18.545 10.2653 18.6377 10.2521 18.7231 10.2173L21.4062 9.12792L24.0903 10.2173C24.1577 10.2444 24.2296 10.2584 24.3022 10.2585C24.4128 10.2585 24.5225 10.2257 24.6162 10.1629C24.6928 10.1115 24.7556 10.042 24.7989 9.96059C24.8423 9.87915 24.8648 9.78829 24.8647 9.69604V3.45792H27.3781C27.5788 4.05511 28.0466 4.61198 28.7534 5.08823C29.3928 5.51948 30.1944 5.86542 31.0634 6.11573V18.9032ZM32.1884 5.23542V2.89542C32.1884 2.58511 31.9363 2.33292 31.6259 2.33292H28.67C29.3206 1.80511 30.7278 1.48261 32.4069 1.5323C34.2903 1.58855 36.2853 2.12855 37.0513 3.05573L35.8531 2.79323C35.3047 2.67229 34.7478 2.9798 34.5556 3.50667L33.8506 5.44073C33.2975 5.41542 32.7341 5.34605 32.1884 5.23542ZM43.8172 13.6354L39.4409 16.041C39.1475 16.2023 38.8081 16.2389 38.4828 16.1451C38.1584 16.0504 37.8903 15.8376 37.73 15.5442L34.1309 8.99667C33.9772 8.71729 33.9556 8.43604 34.0653 8.13698L34.6362 6.56948C35.3488 6.54698 36.0303 6.4523 36.6341 6.27698C36.9322 6.19073 37.1047 5.87855 37.0175 5.58042C36.9759 5.43724 36.8792 5.31643 36.7486 5.24453C36.618 5.17264 36.4642 5.15553 36.3209 5.19698C35.9338 5.30948 35.5053 5.38261 35.0553 5.42104L35.6122 3.89292L40.025 4.86136C40.3363 4.92979 40.5622 5.09855 40.7159 5.37792L44.315 11.9254C44.6488 12.5329 44.4256 13.3007 43.8172 13.6354ZM41.2934 10.4207C41.5166 10.8257 41.5475 11.2992 41.3825 11.7539C41.2906 12.0079 41.1406 12.2376 40.9484 12.4317L41.2644 13.0064C41.3116 13.092 41.3356 13.1885 41.3341 13.2863C41.3326 13.384 41.3056 13.4797 41.2558 13.5639C41.206 13.6481 41.1352 13.7178 41.0502 13.7662C40.9652 13.8146 40.869 13.8399 40.7712 13.8398C40.5725 13.8398 40.3803 13.7348 40.2781 13.5482L39.9622 12.9735C39.8262 13.0035 39.6894 13.0195 39.5516 13.0195C39.4184 13.0195 39.2863 13.0054 39.1569 12.9764C38.6844 12.8723 38.3019 12.592 38.0788 12.187C37.9287 11.9151 38.0281 11.5729 38.3009 11.4229C38.5728 11.2729 38.915 11.3732 39.065 11.6451C39.1512 11.8026 39.3116 11.8589 39.3997 11.8785C39.5778 11.9179 39.7747 11.886 39.9528 11.7876C40.1309 11.6901 40.2631 11.541 40.3259 11.3695C40.3569 11.2851 40.3953 11.1201 40.3081 10.9626C40.2303 10.821 39.9781 10.8192 39.4044 10.8698C39.335 10.8764 39.2647 10.882 39.1934 10.8876L38.9938 10.9045C38.3422 10.9617 37.4497 11.0404 37.0053 10.2332C36.6463 9.57979 36.8103 8.76792 37.3503 8.22229L37.0344 7.64761C36.8844 7.37573 36.9837 7.03354 37.2566 6.88354C37.5284 6.73354 37.8706 6.83292 38.0206 7.10573L38.3366 7.68136C39.0875 7.51729 39.86 7.81448 40.2191 8.46698C40.3691 8.73886 40.2697 9.08105 39.9969 9.23104C39.7241 9.38104 39.3828 9.28167 39.2328 9.00886C39.0884 8.74636 38.6825 8.68073 38.3459 8.86636C38.0094 9.05104 37.8462 9.42979 37.9906 9.69229C38.0684 9.83386 38.3206 9.83573 38.8944 9.78511C38.9637 9.77854 39.0341 9.77292 39.1053 9.76729L39.305 9.75042C39.9575 9.69229 40.85 9.61355 41.2934 10.4207Z" fill="#F55733"/>
</svg>
