<svg width="64" height="59" viewBox="0 0 64 59" fill="none" xmlns="http://www.w3.org/2000/svg">
<path d="M61.3049 22.792L55.2619 17.752C54.3149 16.962 53.1859 16.476 52.0829 16.383C50.8009 16.28 49.6499 16.715 48.9209 17.588L44.2179 23.227L26.2729 44.746L26.2849 44.756C26.0499 45.0289 25.9222 45.378 25.9259 45.738L26.1629 57.409C26.1671 57.6289 26.2196 57.8452 26.3167 58.0425C26.4138 58.2398 26.5532 58.4133 26.7248 58.5507C26.8965 58.6881 27.0963 58.7861 27.3101 58.8376C27.5239 58.8892 27.7464 58.8931 27.9619 58.849L39.1889 56.566C39.5289 56.497 39.8169 56.305 40.0309 56.048L40.0419 56.057L57.9019 34.641L62.6049 29.002C64.0179 27.305 63.4459 24.578 61.3049 22.792ZM29.1249 55.549L28.9899 48.927L35.4949 54.253L29.1249 55.549ZM38.6879 52.992L29.5449 45.505L45.5609 26.301L54.6359 33.869L38.6879 52.992ZM60.2999 27.079L56.5579 31.565L47.4829 23.997L51.2249 19.51C51.3149 19.402 51.5509 19.35 51.8309 19.373C52.3179 19.414 52.8679 19.663 53.3389 20.056L59.3819 25.096C60.3229 25.88 60.5119 26.826 60.2999 27.079Z" fill="black"/>
<path d="M20.9709 46.908C20.8962 46.861 20.8175 46.8206 20.7359 46.787C20.7269 46.783 20.7189 46.777 20.7099 46.774C20.5389 46.7062 20.3568 46.671 20.1729 46.67L20.1449 46.668C19.9611 46.6699 19.7791 46.7051 19.6079 46.772L19.5819 46.78C19.4 46.8549 19.2346 46.9646 19.0949 47.103L19.0919 47.105L19.0889 47.108L19.0819 47.115L15.2849 50.911C14.8831 51.3108 14.3395 51.5356 13.7727 51.5363C13.2059 51.5371 12.6617 51.3138 12.2589 50.915L11.2089 49.865C10.8107 49.4632 10.5872 48.9203 10.5872 48.3545C10.5872 47.7888 10.8107 47.2459 11.2089 46.844L15.0109 43.042L15.0149 43.038L15.0199 43.033L15.0229 43.028C15.1629 42.887 15.2709 42.722 15.3449 42.544C15.3489 42.535 15.3499 42.525 15.3539 42.516C15.4207 42.3455 15.4559 42.1642 15.4579 41.981L15.4559 41.953C15.4547 41.7687 15.4191 41.5863 15.3509 41.415L15.3399 41.395C15.3063 41.3118 15.2651 41.2318 15.2169 41.156C13.971 39.2413 13.0883 37.1135 12.6129 34.879C12.6079 34.856 12.5979 34.836 12.5919 34.813C12.5742 34.7398 12.5511 34.6679 12.5229 34.598C12.5079 34.563 12.4859 34.532 12.4689 34.498C12.4409 34.445 12.4149 34.392 12.3819 34.343C12.3599 34.311 12.3329 34.284 12.3089 34.255C12.2719 34.209 12.2359 34.162 12.1939 34.121C12.1719 34.099 12.1459 34.082 12.1229 34.062C12.0729 34.019 12.0229 33.975 11.9679 33.939C11.9479 33.926 11.9259 33.917 11.9049 33.905C11.8433 33.8666 11.7788 33.8332 11.7119 33.805C11.6869 33.795 11.6609 33.79 11.6359 33.781C11.5699 33.758 11.5049 33.735 11.4359 33.722C11.3879 33.713 11.3389 33.712 11.2899 33.707C11.2429 33.702 11.1969 33.693 11.1479 33.693H5.76287C5.19485 33.6925 4.65023 33.4667 4.24848 33.0651C3.84673 32.6636 3.62067 32.1191 3.61987 31.551V30.081C3.61987 28.9 4.58087 27.939 5.76287 27.939H11.1499L11.1589 27.937C11.3103 27.9341 11.4603 27.9082 11.6039 27.86C11.6279 27.852 11.6519 27.847 11.6759 27.838C11.8129 27.786 11.9389 27.715 12.0539 27.628C12.0759 27.612 12.0949 27.595 12.1159 27.577C12.2279 27.481 12.3289 27.373 12.4089 27.249C12.4189 27.233 12.4259 27.216 12.4349 27.2C12.5149 27.065 12.5779 26.918 12.6129 26.76L12.6159 26.752C13.0918 24.5175 13.9745 22.3894 15.2199 20.474C15.2699 20.397 15.3089 20.317 15.3429 20.235L15.3529 20.215C15.4229 20.04 15.4559 19.858 15.4579 19.676L15.4599 19.649C15.458 19.4656 15.4228 19.2839 15.3559 19.113L15.3469 19.086C15.272 18.9042 15.1623 18.7387 15.0239 18.599L15.0219 18.596L15.0189 18.593L15.0099 18.584L11.2149 14.789C10.8151 14.3872 10.5903 13.8437 10.5896 13.2769C10.5888 12.7101 10.8122 12.1659 11.2109 11.763L12.2609 10.713C12.6629 10.3148 13.206 10.0913 13.7719 10.0913C14.3378 10.0913 14.8808 10.3148 15.2829 10.713L19.0939 14.524C19.0999 14.53 19.1089 14.532 19.1149 14.538C19.2429 14.662 19.3889 14.755 19.5469 14.825C19.5829 14.841 19.6179 14.853 19.6539 14.866C19.8149 14.923 19.9809 14.962 20.1519 14.963H20.1559C20.3249 14.963 20.4939 14.924 20.6579 14.865C20.7069 14.848 20.7509 14.823 20.7979 14.801C20.8559 14.773 20.9169 14.757 20.9719 14.721C22.8864 13.4753 25.0138 12.5926 27.2479 12.117C27.2659 12.113 27.2819 12.105 27.2999 12.1C27.3789 12.08 27.4559 12.058 27.5289 12.027C27.5669 12.011 27.5999 11.988 27.6349 11.969C27.6849 11.942 27.7359 11.918 27.7829 11.886C27.8229 11.858 27.8579 11.825 27.8949 11.793C27.9309 11.762 27.9699 11.734 28.0029 11.7C28.0369 11.666 28.0639 11.627 28.0939 11.589C28.1249 11.551 28.1579 11.516 28.1839 11.475C28.2099 11.436 28.2279 11.394 28.2499 11.352C28.2729 11.308 28.2999 11.266 28.3189 11.22C28.3389 11.17 28.3519 11.118 28.3669 11.066C28.3789 11.025 28.3949 10.985 28.4039 10.942C28.4179 10.871 28.4219 10.797 28.4259 10.724C28.4269 10.699 28.4339 10.675 28.4339 10.649V5.26505C28.4339 4.08405 29.3949 3.12305 30.5769 3.12305H32.0459C33.2279 3.12305 34.1889 4.08405 34.1889 5.26505V10.65C34.1889 10.683 34.1969 10.713 34.1989 10.746C34.2029 10.812 34.2059 10.878 34.2189 10.942C34.2289 10.991 34.2459 11.036 34.2609 11.083C34.2749 11.129 34.2849 11.176 34.3029 11.22C34.3229 11.27 34.3509 11.315 34.3769 11.362C34.3979 11.4 34.4149 11.44 34.4389 11.476C34.4669 11.518 34.4999 11.555 34.5319 11.593C34.5609 11.629 34.5879 11.667 34.6209 11.701C34.6539 11.735 34.6919 11.763 34.7289 11.793C34.7669 11.825 34.8019 11.859 34.8429 11.887C34.8869 11.917 34.9359 11.94 34.9829 11.966C35.0209 11.987 35.0569 12.011 35.0969 12.028C35.1639 12.057 35.2359 12.077 35.3079 12.096C35.3319 12.102 35.3529 12.113 35.3769 12.118C37.6114 12.5941 39.7394 13.4768 41.6549 14.722C41.7089 14.757 41.7699 14.773 41.8259 14.801C41.8739 14.824 41.9189 14.849 41.9679 14.866C42.1319 14.925 42.2999 14.964 42.4699 14.964C42.6419 14.964 42.8099 14.924 42.9709 14.867C43.0069 14.854 43.0419 14.842 43.0779 14.826C43.2359 14.756 43.3819 14.663 43.5099 14.539C43.5159 14.533 43.5249 14.531 43.5319 14.525L47.3379 10.718C47.7399 10.3187 48.2834 10.0943 48.8501 10.0936C49.4167 10.0928 49.9608 10.3158 50.3639 10.714L51.4139 11.764C51.9859 12.336 52.1529 13.156 51.9369 13.885C52.0529 13.888 52.1669 13.884 52.2839 13.893C53.1695 13.9762 54.0347 14.2084 54.8429 14.58C55.2909 12.869 54.8689 10.976 53.5349 9.64305L52.4849 8.59305C50.4889 6.59705 47.2319 6.59505 45.2199 8.59305L42.2289 11.585C40.6447 10.6775 38.9514 9.97517 37.1899 9.49505V5.26505C37.1883 3.90162 36.6459 2.5945 35.6817 1.6305C34.7175 0.666508 33.4103 0.12437 32.0469 0.123047H30.5779C29.2146 0.124898 27.9077 0.667206 26.9436 1.63109C25.9796 2.59497 25.437 3.90178 25.4349 5.26505V9.49405C23.6734 9.97442 21.9802 10.6767 20.3959 11.584L17.3999 8.58805C15.3929 6.59405 12.1339 6.59605 10.1399 8.59205L9.08987 9.64205C7.09387 11.637 7.09287 14.894 9.08987 16.907L12.0809 19.898C11.1737 21.4825 10.4714 23.1757 9.99087 24.937H5.76287C4.39961 24.9389 3.09269 25.4812 2.12862 26.4451C1.16455 27.409 0.621989 28.7158 0.619873 30.079V31.549C0.621461 32.9125 1.16385 34.2196 2.12804 35.1836C3.09222 36.1476 4.39944 36.6897 5.76287 36.691H9.99087C10.4711 38.4525 11.1734 40.1458 12.0809 41.73L9.08587 44.726C7.09187 46.733 7.09387 49.99 9.08987 51.986L10.1399 53.036C11.1379 54.034 12.4519 54.533 13.7669 54.533C15.0819 54.533 16.3989 54.035 17.4039 53.036L20.3959 50.045C21.4031 50.6176 22.4549 51.1082 23.5409 51.512L23.4749 48.257C22.6073 47.8713 21.7702 47.4204 20.9709 46.908Z" fill="black"/>
<path d="M20.3909 30.8141C20.3909 24.7921 25.2899 19.8931 31.3119 19.8931C34.8939 19.8931 38.0699 21.6351 40.0629 24.3071L42.0329 21.9451C39.4769 18.8611 35.6209 16.8931 31.3119 16.8931C23.6359 16.8931 17.3909 23.1381 17.3909 30.8141C17.3909 36.0211 20.2689 40.5631 24.5139 42.9511L26.4799 40.5941C22.8779 38.8061 20.3909 35.1001 20.3909 30.8141Z" fill="black"/>
</svg>
