<svg width="20" height="20" viewBox="0 0 20 20" fill="none" xmlns="http://www.w3.org/2000/svg">
<path d="M7.95511 5.3353C8.10842 5.02731 8.54783 5.02731 8.70114 5.3353L10.343 8.63373C10.3834 8.7149 10.4492 8.78067 10.5303 8.82107L13.8288 10.4629C14.1368 10.6162 14.1368 11.0556 13.8288 11.2089L10.5303 12.8508C10.4492 12.8912 10.3834 12.957 10.343 13.0381L8.70114 16.3366C8.54783 16.6446 8.10842 16.6446 7.95511 16.3366L6.31326 13.0381C6.27286 12.957 6.20709 12.8912 6.12592 12.8508L2.82749 11.2089C2.5195 11.0556 2.5195 10.6162 2.82749 10.4629L6.12592 8.82107C6.20708 8.78067 6.27286 8.7149 6.31326 8.63373L7.95511 5.3353Z" stroke="#272727" stroke-width="1.2" stroke-linecap="round" stroke-linejoin="round"/>
<path d="M13.5 3.33594C13.8692 4.5567 14.2975 4.97074 15.5 5.33594C14.3038 5.71345 13.864 6.1495 13.5 7.33594C13.1465 6.12028 12.6986 5.68588 11.5 5.33594C12.69 4.98572 13.1334 4.55505 13.5 3.33594Z" stroke="#272727" stroke-width="0.8" stroke-linejoin="round"/>
<path d="M15.1641 14.1641C15.5332 15.3848 15.9616 15.7989 17.1641 16.1641C15.9679 16.5416 15.5281 16.9776 15.1641 18.1641C14.8106 16.9484 14.3627 16.514 13.1641 16.1641C14.3541 15.8138 14.7974 15.3832 15.1641 14.1641Z" stroke="#272727" stroke-width="0.8" stroke-linejoin="round"/>
</svg>
