<svg width="64" height="65" viewBox="0 0 64 65" fill="none" xmlns="http://www.w3.org/2000/svg">
<g clip-path="url(#clip0_207_1365)">
<path d="M55.1295 26.9554H54.9711V23.0742C54.9711 10.6068 44.8644 0.5 32.3969 0.5C19.9293 0.5 9.8226 10.6068 9.8226 23.0742V26.9554H8.87217C5.38698 26.9554 2.69395 30.0445 2.69395 33.6089V43.5099C2.60617 46.9646 5.33574 49.8364 8.79045 49.9242C8.81774 49.9249 8.84488 49.9254 8.87217 49.9257H14.7335C15.5637 49.8867 16.2052 49.1819 16.1661 48.3517C16.1647 48.3218 16.1624 48.292 16.1592 48.2622V28.8563C16.1592 27.9059 15.6048 26.9553 14.7335 26.9553H12.9909V23.0741C12.9909 12.3566 21.6793 3.66817 32.3969 3.66817C43.1144 3.66817 51.8028 12.3566 51.8028 23.0741V26.9553H50.0602C49.1889 26.9553 48.6345 27.9057 48.6345 28.8563V48.2622C48.5461 49.0887 49.1443 49.8303 49.9707 49.9187C50.0005 49.9219 50.0303 49.9242 50.0602 49.9255H51.8819L51.7235 50.1631C50.5513 51.7209 49.0314 52.9834 47.2849 53.8497C45.5384 54.7161 43.6136 55.1624 41.6641 55.1532C40.7987 50.9098 36.6571 48.1713 32.4137 49.0368C28.7849 49.7768 26.1686 52.9548 26.1393 56.6582C26.1827 61.0018 29.7164 64.5 34.0602 64.4997C36.2105 64.4649 38.26 63.5824 39.7631 62.0442C40.7771 61.0057 41.4417 59.6766 41.6641 58.2422C44.1055 58.2515 46.5153 57.6906 48.7018 56.6043C50.8882 55.5179 52.7908 53.9361 54.2581 51.9848L55.7631 49.767C59.169 49.5294 61.3076 47.3908 61.3076 44.3016V34.4006C61.3077 30.9951 58.7732 26.9554 55.1295 26.9554ZM12.9909 46.7574H8.87217C7.16657 46.7158 5.81755 45.2996 5.85909 43.5941C5.85985 43.566 5.86091 43.538 5.86227 43.5098V33.6088C5.86227 31.7871 7.12957 30.1236 8.87217 30.1236H12.9909V46.7574ZM37.4662 59.8267C37.0319 60.2975 36.5055 60.6741 35.9196 60.933C35.3337 61.1919 34.7008 61.3276 34.0603 61.3317C31.4833 61.2907 29.392 59.2343 29.3078 56.6583C29.3068 54.0773 31.3982 51.9842 33.9792 51.9832C36.5602 51.9821 38.6533 54.0736 38.6544 56.6545V56.6583C38.687 57.24 38.5982 57.822 38.3936 58.3675C38.1891 58.913 37.8732 59.4099 37.4662 59.8267ZM58.1394 44.3019C58.1394 46.4405 56.08 46.7574 55.1295 46.7574H51.8028V30.1238H55.1295C56.8721 30.1238 58.1394 32.5792 58.1394 34.4009V44.3019Z" fill="black"/>
</g>
<defs>
<clipPath id="clip0_207_1365">
<rect width="64" height="64" fill="white" transform="translate(0 0.5)"/>
</clipPath>
</defs>
</svg>
