<svg width="22" height="21" viewBox="0 0 22 21" fill="none" xmlns="http://www.w3.org/2000/svg">
<path d="M2.66699 9.61185C2.25278 9.61301 1.84737 9.73142 1.49765 9.95338C1.14793 10.1753 0.868198 10.4918 0.690817 10.8661C0.513437 11.2404 0.445656 11.6573 0.495316 12.0685C0.544977 12.4797 0.710049 12.8685 0.971436 13.1898L6.54359 20.0157C6.74227 20.2624 6.99693 20.4581 7.28644 20.5866C7.57595 20.7151 7.89195 20.7727 8.20817 20.7545C8.88451 20.7182 9.49513 20.3564 9.88444 19.7615L21.4592 1.12037C21.4611 1.11726 21.4631 1.11418 21.4651 1.11114C21.5737 0.944389 21.5385 0.613927 21.3143 0.406327C21.2528 0.349318 21.1802 0.305519 21.101 0.277627C21.0219 0.249736 20.9378 0.238343 20.8541 0.244149C20.7704 0.249956 20.6888 0.27284 20.6142 0.311392C20.5397 0.349944 20.4738 0.403347 20.4207 0.468312C20.4166 0.47342 20.4123 0.478451 20.4079 0.483404L8.73456 13.6725C8.69014 13.7227 8.63619 13.7636 8.57585 13.7927C8.5155 13.8219 8.44997 13.8388 8.38304 13.8424C8.31612 13.846 8.24914 13.8363 8.186 13.8138C8.12287 13.7913 8.06482 13.7565 8.01525 13.7114L4.1411 10.1859C3.73873 9.81707 3.21283 9.61227 2.66699 9.61185Z" fill="#F55733"/>
</svg>
