<svg width="58" height="58" viewBox="0 0 58 58" fill="none" xmlns="http://www.w3.org/2000/svg">
<path fill-rule="evenodd" clip-rule="evenodd" d="M5.6705 23.025C7.85001 14.3765 14.6961 7.58657 23.3773 5.48901C23.607 2.4883 26.1146 0.125 29.1742 0.125C32.2529 0.125 34.7728 2.51805 34.9751 5.54556C43.6239 7.72498 50.4142 14.5712 52.5118 23.2523C55.5122 23.4824 57.875 25.9898 57.875 29.0491C57.875 32.1279 55.482 34.6477 52.4544 34.85C51.1745 39.929 48.2851 44.3652 44.3636 47.5866C43.8835 47.981 43.1746 47.9116 42.7802 47.4315C42.3858 46.9514 42.4553 46.2424 42.9354 45.8481C46.4273 42.9795 49.0137 39.0528 50.2053 34.5607C47.9043 33.7862 46.247 31.6112 46.247 29.0491C46.247 26.4668 47.9305 24.2777 50.2599 23.5195C48.3087 15.8623 42.3144 9.81809 34.6858 7.79472C33.9113 10.0958 31.7363 11.753 29.1742 11.753C26.5921 11.753 24.4032 10.0698 23.6448 7.74086C15.9874 9.69195 9.94315 15.686 7.91967 23.3143C10.2207 24.0887 11.878 26.2638 11.878 28.8259C11.878 31.4082 10.1945 33.5973 7.86518 34.3555C9.81641 42.0127 15.8107 48.0569 23.4393 50.0803C24.2137 47.7793 26.3888 46.122 28.9509 46.122C31.5331 46.122 33.7222 47.8054 34.4804 50.1347C36.5383 49.6099 38.5102 48.7857 40.3322 47.6868C40.8642 47.3659 41.5557 47.5371 41.8766 48.0691C42.1975 48.6011 42.0263 49.2926 41.4943 49.6135C39.3985 50.8775 37.123 51.8122 34.7477 52.3866C34.5177 55.3871 32.0102 57.75 28.9509 57.75C25.8721 57.75 23.3522 55.357 23.1499 52.3294C14.5011 50.15 7.71089 43.3038 5.61325 34.6227C2.6129 34.3926 0.25 31.8852 0.25 28.8259C0.25 25.7471 2.64301 23.2273 5.6705 23.025ZM6.42004 25.2794C6.30293 25.2678 6.18417 25.2619 6.06401 25.2619C4.09566 25.2619 2.5 26.8575 2.5 28.8259C2.5 30.7942 4.09566 32.3899 6.06401 32.3899C6.16982 32.3899 6.27456 32.3853 6.37803 32.3763C6.39878 32.3737 6.4195 32.3717 6.44015 32.3703C8.2317 32.1824 9.62802 30.6672 9.62802 28.8259C9.62802 26.9943 8.24639 25.4854 6.46848 25.2846C6.45236 25.2832 6.43621 25.2815 6.42004 25.2794ZM51.6846 25.5048C49.8932 25.6928 48.497 27.2079 48.497 29.0491C48.497 30.8809 49.8789 32.3899 51.6571 32.5905C51.6728 32.5918 51.6886 32.5935 51.7044 32.5955C51.8217 32.6072 51.9406 32.6131 52.061 32.6131C54.0294 32.6131 55.625 31.0175 55.625 29.0491C55.625 27.0808 54.0294 25.4851 52.061 25.4851C51.9553 25.4851 51.8507 25.4897 51.7474 25.4987C51.7264 25.5013 51.7055 25.5033 51.6846 25.5048ZM25.6238 6.2528C25.6264 6.27408 25.6285 6.2953 25.6299 6.31647C25.8184 8.10738 27.3333 9.50302 29.1742 9.50302C31.0055 9.50302 32.5142 8.12179 32.7154 6.34425C32.7168 6.32764 32.7186 6.31101 32.7207 6.29433C32.7323 6.17746 32.7382 6.05893 32.7382 5.93901C32.7382 3.97066 31.1425 2.375 29.1742 2.375C27.2058 2.375 25.6102 3.97066 25.6102 5.93901C25.6102 6.04475 25.6148 6.14941 25.6238 6.2528ZM25.4098 51.5293C25.4083 51.5469 25.4065 51.5645 25.4042 51.5822C25.3927 51.6986 25.3868 51.8166 25.3868 51.936C25.3868 53.9044 26.9825 55.5 28.9509 55.5C30.9192 55.5 32.5149 53.9044 32.5149 51.936C32.5149 51.8309 32.5103 51.7268 32.5014 51.6239C32.4986 51.6019 32.4965 51.5799 32.4951 51.558C32.3063 49.7674 30.7915 48.372 28.9509 48.372C27.12 48.372 25.6117 49.7525 25.4098 51.5293Z" fill="black"/>
<path fill-rule="evenodd" clip-rule="evenodd" d="M13.2618 22.6154C13.2582 22.6518 13.2564 22.6886 13.2564 22.7257L13.2565 22.7374V29.0525C13.2565 29.4638 13.4809 29.8423 13.8418 30.0396L20.5864 33.7271V39.3915C20.5864 39.8028 20.8108 40.1813 21.1717 40.3786L28.5401 44.4072C28.8764 44.591 29.2832 44.591 29.6195 44.4072L36.9879 40.3786C37.3488 40.1813 37.5733 39.8028 37.5733 39.3915V33.7693L44.395 30.0396C44.7559 29.8423 44.9803 29.4638 44.9803 29.0525V22.7375L44.9804 22.7257C44.9804 22.6905 44.9787 22.6555 44.9755 22.6209C44.9555 22.4047 44.8743 22.2062 44.7494 22.0429C44.6886 21.9632 44.617 21.8914 44.5358 21.8298C44.4858 21.7917 44.4324 21.7577 44.3763 21.7284L37.0266 17.7101C36.6903 17.5262 36.2835 17.5262 35.9472 17.7101L29.1184 21.4436L22.2895 17.71C21.9532 17.5262 21.5465 17.5262 21.2102 17.71L13.8577 21.7298C13.8167 21.7514 13.7771 21.7755 13.7393 21.8019C13.6318 21.8765 13.5395 21.9685 13.4652 22.0728C13.3539 22.2288 13.2814 22.4144 13.2618 22.6154ZM24.0506 26.7785L22.8749 27.4212V31.1464L27.9934 28.348V24.6229L27.0949 25.1141C26.5497 25.4122 25.8662 25.2118 25.5681 24.6667C25.27 24.1215 25.4704 23.438 26.0155 23.1399L26.7732 22.7257L21.7499 19.9793L16.7266 22.7257L21.7499 25.472L22.9712 24.8043C23.5164 24.5062 24.2 24.7065 24.498 25.2517C24.7961 25.7969 24.5958 26.4804 24.0506 26.7785ZM20.6249 27.4213V31.1838L15.5065 28.3854V24.6229L20.6249 27.4213ZM24.0908 33.0834L29.0799 35.8111L34.1032 33.0647L29.1141 30.337L24.0908 33.0834ZM30.2434 28.3854V24.6229L35.3619 27.4213V31.1838L30.2434 28.3854ZM37.6119 31.1838L42.7303 28.3854V24.623L37.6119 27.4214V31.1838ZM36.4869 19.9793L31.4636 22.7257L36.4869 25.4721L41.5102 22.7257L36.4869 19.9793ZM35.3233 34.962L30.2048 37.7603V41.5228L35.3233 38.7244V34.962ZM22.8364 34.9619L27.9548 37.7603V41.5228L22.8364 38.7244V34.9619Z" fill="black"/>
</svg>
